<svg width="376" height="396" viewBox="0 0 376 396" fill="none" xmlns="http://www.w3.org/2000/svg">
<path d="M242.368 198.617C252.541 181.698 237.297 159.124 232.39 155.536M232.39 155.536C231.396 153.741 227.64 153.261 226.149 152.436M232.39 155.536C230.144 156.529 228.811 156.059 226.12 156.09M232.39 155.536C232.451 152.536 230.841 151.772 228.061 149.554" stroke="#2C4163" stroke-width="2" stroke-linecap="round"/>
<path d="M132.319 203.931C117.219 186.649 129.203 162.146 136.75 159.932M136.75 159.932C137.509 158.026 141.173 157.073 142.548 156.066M136.75 159.932C139.104 160.632 140.367 159.997 143.04 159.686M136.75 159.932C136.309 156.965 137.809 156.002 140.285 153.449" stroke="#2C4163" stroke-width="2" stroke-linecap="round"/>
<path d="M117.069 253.637C119.219 267.695 172.548 268.002 185.777 268.002C199.006 268.002 261.686 269.255 258.911 257.365C256.136 245.475 207.687 237.629 185.777 244.993C163.867 252.356 114.918 239.579 117.069 253.637Z" fill="#ECEDEF"/>
<path d="M176.324 210.922C172.455 229.838 172.518 239.5 176.324 255.057" stroke="#2C4163" stroke-width="2" stroke-linecap="round"/>
<path d="M203.189 209.963C201.899 228.468 201.92 237.919 203.189 253.139" stroke="#2C4163" stroke-width="2" stroke-linecap="round"/>
<path d="M248.269 200.472C256.733 214.785 257.143 238.333 186.017 236.752C114.89 235.171 121.721 210.299 125.988 197.439C130.256 184.578 135.382 161.03 186.017 161.03C236.652 161.03 239.805 186.159 248.269 200.472Z" fill="#00893C"/>
<path d="M189.119 208.039C188.981 211.863 180.539 210.528 179.952 207.547C183.203 206.894 185.122 207.374 189.119 208.039Z" fill="#2C4163"/>
<g clip-path="url(#clip0_9349_159376)">
<ellipse cx="169.878" cy="190.497" rx="8.22879" ry="12.6175" fill="white"/>
<ellipse cx="166.006" cy="190.497" rx="4.35642" ry="7.7646" fill="#2C4163"/>
<ellipse cx="197.953" cy="190.497" rx="8.22879" ry="12.6175" fill="white"/>
<ellipse cx="194.081" cy="190.497" rx="4.35642" ry="7.7646" fill="#2C4163"/>
</g>
<path d="M198.422 255.123C200.53 254.304 202.286 254.289 204.526 254.498C205.722 254.61 206.96 254.276 208.109 254.383" stroke="#2C4163" stroke-width="3" stroke-linecap="round"/>
<path d="M169.945 254.764C171.775 255.382 173.725 255.001 175.596 255.202C176.815 255.333 178.208 254.581 179.389 254.979" stroke="#2C4163" stroke-width="3" stroke-linecap="round"/>
<path fill-rule="evenodd" clip-rule="evenodd" d="M184.126 132.648C170.33 118.202 164.787 145.309 184.603 152.872C203.065 143.564 197.962 117.357 184.126 132.648Z" fill="#2C4163"/>
<defs>
<clipPath id="clip0_9349_159376">
<rect width="44.5323" height="25.235" fill="white" transform="translate(161.649 177.88)"/>
</clipPath>
</defs>
</svg>
