<svg width="64" height="64" viewBox="0 0 64 64" fill="none" xmlns="http://www.w3.org/2000/svg">
    <g clip-path="url(#clip0_1398_6527)">
        <path d="M12.425 35.817L32 55.3337L51.575 35.817C56.2239 31.1818 56.2239 23.6521 51.575 19.017C46.9456 14.4014 39.4544 14.4014 34.825 19.017L32 21.8337L29.175 19.017C24.5456 14.4014 17.0544 14.4014 12.425 19.017C7.77609 23.6521 7.77609 31.1818 12.425 35.817Z" fill="#CCF1D6"/>
        <path d="M43.7668 11.2289L58.766 26.3796C59.7601 27.3837 59.7601 29.0117 58.766 30.0158C57.772 31.0199 56.1603 31.0199 55.1662 30.0158L49.7665 24.5615L53.9663 28.804C54.9603 29.8081 54.9603 31.4361 53.9663 32.4402C52.9722 33.4443 51.3605 33.4443 50.3664 32.4402L46.1666 28.198L49.1665 31.2282C50.1605 32.2323 50.1605 33.8603 49.1665 34.8644C48.1724 35.8685 46.5607 35.8685 45.5667 34.8644L42.5668 31.8342L44.3331 33.6183C45.3396 34.635 45.3231 36.2885 44.2965 37.2845C43.3035 38.2478 41.7315 38.2371 40.7515 37.2603L26 22.5573L26 8.84443L36.1818 8.84443M44.9667 10.0171L39.567 15.4714C38.2415 16.8102 36.0926 16.8102 34.7672 15.4714L33.5538 14.2457C32.8963 13.5816 32.8903 12.5069 33.5402 11.8354L42.0606 3.03172C43.3447 1.70492 45.4408 1.65089 46.7903 2.90982L53.1515 8.84443L63.3333 8.84444L63.3333 22.7437L55.1662 22.7437" stroke="#262626" stroke-width="2"/>
        <path d="M1 40.6663C1 40.4822 1.14924 40.333 1.33333 40.333H36C36.1841 40.333 36.3333 40.4822 36.3333 40.6663V50.6663C36.3333 51.2186 35.8856 51.6663 35.3333 51.6663H2C1.44771 51.6663 1 51.2186 1 50.6663V40.6663Z" stroke="#262626" stroke-width="2"/>
        <path d="M3 61.9994V51.666H34.3333V61.9994C34.3333 62.5516 33.8856 62.9994 33.3333 62.9994H4C3.44771 62.9994 3 62.5516 3 61.9994Z" stroke="#262626" stroke-width="2"/>
        <path d="M13.6667 35.9997C13.6667 35.0792 14.4129 34.333 15.3334 34.333H22.0001C22.9206 34.333 23.6667 35.0792 23.6667 35.9997V40.333H13.6667V35.9997Z" stroke="#262626" stroke-width="2"/>
        <path d="M18.6667 48.666L18.6667 53.9993" stroke="#262626" stroke-width="2" stroke-linecap="round"/>
    </g>
    <defs>
        <clipPath id="clip0_1398_6527">
            <rect width="64" height="64" fill="white"/>
        </clipPath>
    </defs>
</svg>
