<svg xmlns="http://www.w3.org/2000/svg" width="64" height="64" fill="none"><g clip-path="url(#a)"><path fill="#CCE1FF" d="M28.34 36.312 15.332 23.304l9.971-9.971 13.008 13.008 5.655-5.656L47.999 46l-25.315-4.033 5.656-5.655Z"/><path fill="#23262A" fill-rule="evenodd" d="M39.335 36v3.333H28c-.736 0-1.333.597-1.333 1.333v10a2 2 0 0 0 2 2V62a2 2 0 0 0 2 2h29.333a2 2 0 0 0 2-2v-9.334a2 2 0 0 0 2-2v-10c0-.736-.597-1.333-1.333-1.333H51.335V36a2.667 2.667 0 0 0-2.667-2.667h-6.667A2.667 2.667 0 0 0 39.335 36Zm9.333-.667h-6.667a.667.667 0 0 0-.666.667v3.333h8V36a.667.667 0 0 0-.667-.667Zm13.333 6v9.333H46.335v-2a1 1 0 0 0-2 0v2H28.668v-9.333h33.333ZM44.335 52.666H30.668V62h29.333v-9.334H46.335V54a1 1 0 1 1-2 0v-1.334ZM25.373 9.976c0 5.51-4.498 9.977-10.048 9.977-5.549 0-10.047-4.467-10.047-9.977C5.278 4.466 9.776 0 15.325 0c5.55 0 10.048 4.467 10.048 9.976Zm-2.332 0c0 4.207-3.439 7.645-7.716 7.645-4.276 0-7.715-3.438-7.715-7.645 0-4.206 3.439-7.644 7.715-7.644 4.277 0 7.716 3.438 7.716 7.644Z" clip-rule="evenodd"/><path fill="#23262A" d="M2.262 34.49c1.523-6.07 6.883-10.52 13.223-10.52 6.34 0 11.7 4.45 13.223 10.52l2.262-.569c-1.768-7.044-8.013-12.284-15.485-12.284-7.472 0-13.717 5.24-15.485 12.285l2.262.567Z"/></g><defs><clipPath id="a"><path fill="#fff" d="M0 0h64v64H0z"/></clipPath></defs></svg>