<svg width="64" height="64" viewBox="0 0 64 64" fill="none" xmlns="http://www.w3.org/2000/svg">
    <g clip-path="url(#clip0_866_59364)">
        <path d="M50.6667 31.9997C50.6667 21.6904 42.3094 13.333 32 13.333C21.6907 13.333 13.3334 21.6904 13.3334 31.9997C13.3334 42.309 21.6907 50.6663 32 50.6663" stroke="#E0D8E9" stroke-width="12" stroke-linecap="round"/>
        <path d="M62.5 6.66667C62.5 9.52014 60.1868 11.8333 57.3333 11.8333C54.4798 11.8333 52.1666 9.52014 52.1666 6.66667C52.1666 3.8132 54.4798 1.5 57.3333 1.5C60.1868 1.5 62.5 3.8132 62.5 6.66667Z" stroke="#262626" stroke-width="3"/>
        <ellipse cx="1.33333" cy="1.33333" rx="1.33333" ry="1.33333" transform="matrix(1 0 0 -1 46.6666 5.33301)" stroke="#262626" stroke-width="3"/>
        <path d="M43.8333 6.66667C43.8333 9.52014 41.5201 11.8333 38.6667 11.8333C35.8132 11.8333 33.5 9.52014 33.5 6.66667C33.5 3.8132 35.8132 1.5 38.6667 1.5C41.5201 1.5 43.8333 3.8132 43.8333 6.66667Z" stroke="#262626" stroke-width="3"/>
        <path d="M43.5762 5.33333C44.8432 4.49087 46.3642 4 47.9999 4C49.6355 4 51.1566 4.49087 52.4236 5.33333" stroke="#262626" stroke-width="3"/>
        <path d="M31.3333 64.0001C29.5376 56.8436 23.2042 51.5557 15.6667 51.5557C8.12916 51.5557 1.79574 56.8436 0 64.0001" stroke="#262626" stroke-width="3"/>
        <path d="M24.9592 37.5559C24.9592 42.7311 20.7309 46.9447 15.4925 46.9447C10.2542 46.9447 6.02588 42.7311 6.02588 37.5559C6.02588 32.3806 10.2542 28.167 15.4925 28.167C20.7309 28.167 24.9592 32.3806 24.9592 37.5559Z" stroke="#262626" stroke-width="3"/>
    </g>
    <defs>
        <clipPath id="clip0_866_59364">
            <rect width="64" height="64" fill="white"/>
        </clipPath>
    </defs>
</svg>
